PathFileType	4	(X/Y/Z)	C:\Documents and Settings\user\My Documents\MotionFiles\BioEngCompLab_Data\Delaware\Subject 2\running_3001_smoothed.trc																																																																																																																									
DataRate	CameraRate	NumFrames	NumMarkers	Units	OrigDataRate	OrigDataStartFrame	OrigNumFrames																																																																																																																					
60	60	4	41	mm	60	526	600																																																																																																																					
Frame#	Time	R.ASIS			L.ASIS			V.Sacral			R.Thigh.Upper			R.Thigh.Front			R.Thigh.Rear			L.Thigh.Upper			L.Thigh.Front			L.Thigh.Rear			R.Shank.Upper			R.Shank.Front			R.Shank.Rear			L.Shank.Upper			L.Shank.Front			L.Shank.Rear			R.Heel			R.Midfoot.Sup			R.Midfoot.Lat			R.Toe.Tip			L.Heel			L.Midfoot.Sup			L.Midfoot.Lat			L.Toe.Tip			Sternum			R.Acromium			L.Acromium			R.Bicep			L.Bicep			R.Elbow			L.Elbow			R.Wrist.Med			R.Wrist.Lat			L.Wrist.Med			L.Wrist.Lat			R.Toe.Lat			R.Toe.Med			L.Toe.Lat			L.Toe.Med			R.Temple			L.Temple			Top.Head		
		X1	Y1	Z1	X2	Y2	Z2	X3	Y3	Z3	X4	Y4	Z4	X5	Y5	Z5	X6	Y6	Z6	X7	Y7	Z7	X8	Y8	Z8	X9	Y9	Z9	X10	Y10	Z10	X11	Y11	Z11	X12	Y12	Z12	X13	Y13	Z13	X14	Y14	Z14	X15	Y15	Z15	X16	Y16	Z16	X17	Y17	Z17	X18	Y18	Z18	X19	Y19	Z19	X20	Y20	Z20	X21	Y21	Z21	X22	Y22	Z22	X23	Y23	Z23	X24	Y24	Z24	X25	Y25	Z25	X26	Y26	Z26	X27	Y27	Z27	X28	Y28	Z28	X29	Y29	Z29	X30	Y30	Z30	X31	Y31	Z31	X32	Y32	Z32	X33	Y33	Z33	X34	Y34	Z34	X35	Y35	Z35	X36	Y36	Z36	X37	Y37	Z37	X38	Y38	Z38	X39	Y39	Z39	X40	Y40	Z40	X41	Y41	Z41

526	8.750000	877.568600	991.840820	-101.548820	889.165530	964.720760	-351.042850	687.606450	992.382080	-247.076640	922.167110	701.801820	-65.355070	1010.655880	690.259460	-130.632430	946.346010	607.002320	-83.855480	810.197270	658.442630	-398.181490	875.947570	581.936100	-334.731690	786.591250	529.089050	-391.192350	988.038820	425.790800	-115.045660	1024.439090	360.495790	-176.035870	965.403020	345.974640	-118.346210	661.473210	463.406830	-381.851720	606.138000	381.785100	-345.993100	593.569640	473.142550	-376.485930	818.152590	66.945390	-213.964970	958.127380	71.058560	-258.186800	933.773010	60.870940	-156.826870	1096.861690	80.670980	-228.481810	325.000850	506.346070	-291.350590	287.381530	363.175260	-248.174960	252.438390	381.433350	-342.864350	243.767620	225.085560	-276.352200	938.767640	1331.016600	-217.292680	781.047420	1428.720950	-41.372730	877.680730	1439.288570	-442.030730	612.191960	1312.965820	-13.840270	0.000000	0.000000	0.000000	529.974000	1252.880000	10.048110	825.178650	1123.516970	-526.252750	611.325440	1011.037350	72.398380	656.159180	1007.177490	24.800470	1012.037170	986.764530	-410.035130	1004.603450	1029.973140	-354.670260	1028.389650	52.077800	-151.207580	1027.585690	44.360260	-263.851320	216.758030	310.561280	-355.592990	241.784100	300.739530	-242.093250	1004.921260	1531.297120	-158.646740	1020.564700	1536.647460	-301.353910	1091.401730	1597.379030	-236.174820	
527	8.767000	874.466740	985.771180	-102.060070	882.781370	955.571530	-352.023220	681.895630	984.886230	-244.341380	912.691040	691.851620	-66.303260	1000.268800	677.283390	-131.996460	933.671750	596.443970	-85.043430	828.307980	651.309750	-399.830440	899.496640	580.922730	-334.964080	817.924560	521.013060	-394.619350	965.784610	414.274600	-117.390120	993.015810	346.498570	-181.126240	934.819760	337.069730	-121.021480	702.776370	453.454380	-386.196810	647.487550	373.461120	-348.172760	634.602110	463.743900	-381.005190	751.444760	69.484880	-215.347340	894.085940	65.891620	-261.052860	868.065800	59.132690	-158.785930	1034.996090	67.238780	-231.758480	361.362370	500.526370	-295.393800	327.967990	356.373110	-252.504120	295.791930	373.923070	-348.533480	291.098570	218.594330	-281.611720	935.968440	1319.299800	-222.367540	785.159910	1419.039550	-39.428920	870.380490	1430.469360	-444.450410	622.353150	1297.264040	-2.611920	0.000000	0.000000	0.000000	544.952510	1234.065670	26.474800	802.162110	1115.986940	-525.440920	643.479370	998.561220	86.897900	685.600890	996.606200	36.949810	984.282960	963.151920	-420.594540	982.535520	1005.798100	-364.111570	963.427670	45.692480	-152.884170	962.799010	35.056880	-266.063600	264.055270	302.286530	-362.028050	285.132320	292.114200	-248.187700	1006.202760	1523.112670	-162.658830	1019.637880	1528.776490	-305.196960	1091.680300	1589.014160	-240.914610	
528	8.783000	871.133060	982.100100	-102.321720	876.848450	950.326480	-352.821290	676.908690	981.174380	-242.192630	898.474370	682.803530	-67.612250	984.056580	663.410100	-134.377580	913.617250	586.148320	-86.345170	847.651310	650.513730	-401.238310	923.535030	586.871890	-334.333650	851.546630	520.483150	-397.505280	933.510860	401.751770	-119.641500	953.388060	332.548950	-185.158980	895.545470	327.445130	-123.782990	746.311830	447.587950	-390.232390	693.127810	368.102910	-348.947480	677.500490	456.281830	-385.154300	683.685000	72.306530	-215.959320	828.462950	63.217720	-262.853240	801.404240	58.651210	-159.867650	970.049930	57.135330	-233.784730	397.720210	487.183990	-299.970490	374.585880	342.564510	-256.248350	345.539730	357.640990	-353.665620	350.257320	205.799100	-285.502590	933.509460	1312.514400	-228.157500	790.268740	1413.378170	-38.281840	860.789490	1425.625730	-446.804570	634.997620	1285.170040	8.686430	0.000000	0.000000	0.000000	563.124630	1218.592160	43.023470	775.163510	1114.297240	-525.428470	681.477600	991.830320	99.220410	720.274170	992.500180	46.954520	952.111880	947.154790	-432.181000	956.341920	989.361390	-375.329500	896.752500	42.049410	-153.640180	896.257020	29.091440	-267.146330	320.847720	285.072390	-367.263090	337.445710	275.593410	-253.183470	1007.051030	1518.053590	-167.175610	1018.328060	1523.934570	-309.536320	1091.723750	1583.602540	-246.203370	
529	8.800000	867.895450	980.818730	-102.129090	872.187320	949.698550	-353.183530	673.163210	981.481870	-241.067140	879.596130	675.469120	-69.309070	962.221070	649.708560	-137.389910	886.777950	577.463620	-87.803010	867.597840	656.593020	-402.572750	947.075930	600.063110	-333.203890	885.689880	527.769470	-399.251920	892.414430	390.369050	-121.599210	906.776610	320.334630	-187.961120	848.806460	318.961610	-126.287180	790.505000	446.705540	-393.331180	741.162350	366.436580	-348.051670	721.050720	451.528470	-388.670900	616.582400	76.066890	-216.034760	762.526120	62.526520	-263.783200	735.035580	59.130150	-160.308760	903.404110	50.094990	-234.787600	433.860320	466.443970	-304.318850	426.657470	322.574980	-259.137730	400.880920	333.974820	-357.805510	420.051030	188.488740	-287.984620	931.538700	1311.171750	-234.361450	796.432560	1412.099120	-37.859230	849.424990	1425.101200	-448.967960	650.054810	1277.385010	19.561960	0.000000	0.000000	0.000000	584.009030	1207.724490	58.839700	745.152040	1119.102540	-525.857120	723.816710	992.656800	108.154110	758.765500	996.579280	53.890370	916.925170	940.120610	-444.270360	926.932920	981.773070	-387.622380	829.655400	40.273570	-153.809100	828.980960	25.612650	-267.360990	386.038360	260.849180	-371.023280	398.040190	252.591640	-256.895660	1007.442320	1516.585080	-172.013720	1016.661560	1522.569820	-314.248570	1091.493160	1581.685550	-251.904310	
